<?xml version="1.0" standalone="no"?>
<!DOCTYPE svg PUBLIC "-//W3C//DTD SVG 20010904//EN"
 "http://www.w3.org/TR/2001/REC-SVG-20010904/DTD/svg10.dtd">
<svg version="1.0" xmlns="http://www.w3.org/2000/svg"
 width="200.000000pt" height="200.000000pt" viewBox="0 0 200.000000 200.000000"
 preserveAspectRatio="xMidYMid meet">

<g transform="translate(0.000000,200.000000) scale(0.100000,-0.100000)"
fill="#000000" stroke="none">
<path d="M935 1935 c-32 -31 -33 -83 -4 -168 l21 -62 -29 -22 c-15 -13 -32
-23 -37 -23 -5 0 -3 -7 4 -15 9 -10 9 -15 1 -15 -6 0 -11 -11 -11 -24 0 -20
-7 -25 -47 -36 -27 -6 -76 -25 -110 -41 l-63 -30 -34 26 c-33 25 -35 25 -68
11 -18 -9 -24 -14 -13 -11 19 4 55 -10 45 -18 -3 -2 -26 -23 -52 -46 l-47 -42
-11 40 c-9 34 -21 48 -68 79 -31 20 -63 49 -71 63 -29 52 11 105 59 79 12 -6
41 -42 65 -81 25 -38 47 -69 49 -69 14 0 -44 109 -75 142 -43 46 -75 49 -118
12 -63 -52 -34 -120 75 -179 l59 -33 -3 -46 c-2 -25 1 -46 5 -46 5 0 13 -9 20
-19 10 -16 5 -32 -28 -97 -22 -44 -42 -96 -45 -116 -6 -34 -10 -38 -35 -38
-16 0 -29 -4 -29 -10 0 -5 -6 -7 -14 -4 -9 3 -21 -7 -32 -25 -21 -36 -22 -36
-94 -11 -113 40 -180 14 -180 -68 0 -79 73 -103 190 -62 60 21 60 21 97 -36
10 -17 13 -17 22 -4 7 10 11 11 11 3 0 -7 11 -13 25 -13 25 0 25 0 25 93 0 51
4 97 9 102 5 6 17 36 26 69 19 59 77 159 108 185 13 10 20 11 30 2 10 -8 17
-7 25 1 9 9 15 9 24 0 7 -7 17 -12 22 -12 6 0 5 5 -2 12 -19 19 -14 29 8 16
11 -7 20 -18 20 -25 0 -18 -23 -22 -42 -6 -17 15 -43 9 -32 -8 3 -5 9 -7 14
-4 4 3 14 -3 21 -12 12 -14 12 -16 0 -8 -10 5 -12 4 -7 -3 4 -7 2 -12 -4 -12
-7 0 -10 6 -7 13 3 8 -3 14 -16 14 l-20 2 20 -21 c20 -19 22 -19 46 -3 14 9
32 17 39 19 7 1 34 16 59 33 102 71 246 100 360 73 64 -15 154 -58 197 -95 30
-25 34 -26 61 -12 19 9 34 11 45 5 11 -6 16 -5 16 6 0 8 -6 17 -12 19 -10 4
-10 6 0 6 24 2 25 -30 1 -52 -20 -20 -21 -20 -9 -2 13 19 13 19 -5 3 -23 -21
-12 -37 15 -21 15 10 19 9 24 -3 3 -9 11 -12 18 -8 8 5 9 0 5 -16 -4 -17 -3
-20 5 -12 18 18 18 40 -1 37 -9 -1 -19 2 -22 7 -10 15 3 68 17 68 22 0 93
-110 116 -181 12 -38 26 -69 30 -69 4 0 8 -45 8 -101 l0 -100 41 4 c33 3 45
10 61 35 11 18 21 32 22 32 1 0 27 -9 59 -20 61 -22 127 -26 157 -10 26 14 43
71 31 103 -12 32 -48 57 -82 57 -15 0 -57 -9 -93 -20 -37 -12 -71 -18 -76 -15
-6 4 -17 20 -26 36 -12 25 -18 28 -30 18 -10 -8 -14 -8 -14 0 0 6 -13 11 -29
11 -27 0 -30 4 -36 42 -4 23 -25 74 -46 114 -33 63 -36 74 -23 85 8 7 13 18
10 25 -3 8 0 13 7 11 8 -1 11 7 8 23 -9 58 -7 63 43 89 78 40 116 81 116 125
0 49 -36 86 -84 86 -42 0 -87 -47 -122 -127 l-24 -53 -46 7 c-35 4 -45 3 -40
-5 4 -7 1 -12 -7 -12 -8 0 -20 -6 -26 -14 -10 -11 -22 -8 -78 19 -36 19 -87
39 -114 45 -42 10 -49 16 -49 36 0 13 -4 24 -10 24 -5 0 -7 6 -4 14 3 9 -7 21
-25 32 -34 20 -37 36 -17 85 22 55 29 117 16 148 -22 53 -95 67 -135 26z m89
-11 c19 -18 20 -67 4 -146 -11 -54 -10 -60 10 -87 12 -17 22 -35 22 -41 0 -6
-28 -10 -71 -10 l-71 0 23 36 c19 31 21 43 14 97 -10 79 -7 137 7 154 14 18
43 16 62 -3z m630 -266 c14 -39 -8 -73 -75 -119 -56 -38 -69 -54 -69 -89 0
-34 -15 -29 -65 18 l-49 47 40 5 c34 4 43 12 71 55 58 90 83 116 112 113 17
-2 29 -12 35 -30z m-688 -188 l2 -35 -5 33 c-4 28 -7 32 -25 26 -14 -4 -18 -3
-13 5 15 25 40 7 41 -29z m72 3 c-1 -37 -1 -37 -5 -5 -5 34 -23 45 -23 13 0
-11 -4 -22 -8 -25 -5 -3 -6 8 -4 25 3 20 10 29 23 29 16 0 19 -7 17 -37z
m-163 -3 c-3 -22 0 -30 11 -30 12 0 14 7 10 33 -6 29 -5 30 4 8 13 -31 6 -51
-19 -51 -30 0 -35 67 -4 70 1 0 0 -13 -2 -30z m231 17 c2 -7 0 -24 -6 -38 -9
-22 -10 -21 -4 8 4 25 1 32 -13 36 -17 4 -17 5 0 6 10 0 20 -5 23 -12z m60
-23 c4 -24 -12 -51 -23 -40 -4 5 -2 11 5 13 17 6 15 23 -3 23 -16 0 -20 12 -8
24 11 11 26 1 29 -20z m116 1 c10 6 10 5 2 -4 -14 -15 -41 -5 -41 16 0 14 2
13 13 -2 8 -10 18 -14 26 -10z m-451 -11 c5 -15 7 -29 5 -32 -3 -2 -8 7 -12
22 -3 14 -10 23 -15 20 -5 -3 -9 0 -9 5 0 21 21 11 31 -15z m-91 5 c0 -6 -7
-8 -16 -5 -8 3 -12 2 -9 -4 3 -6 -1 -10 -11 -10 -13 0 -14 3 -4 15 15 17 40
20 40 4z m70 -36 c0 -7 -4 -13 -10 -13 -5 0 -10 7 -10 15 0 8 -4 15 -10 15 -5
0 -10 7 -10 17 0 14 2 14 20 -2 11 -10 20 -24 20 -32z m424 28 c11 -17 -5 -39
-25 -34 -25 7 -25 23 1 18 11 -2 20 0 20 5 0 5 -10 11 -22 13 -23 4 -23 4 -1
6 12 0 24 -3 27 -8z m-488 -28 c16 -21 18 -43 4 -43 -5 0 -10 8 -10 18 0 26
-11 34 -27 21 -8 -8 -13 -8 -13 -1 0 9 13 18 29 21 2 1 10 -7 17 -16z m564
-21 c0 -10 -7 -27 -15 -38 -12 -14 -14 -15 -9 -2 4 13 1 15 -15 11 -24 -6 -26
0 -11 28 14 25 50 25 50 1z m-626 -17 c-4 -8 -12 -15 -20 -15 -20 0 -17 18 4
23 9 3 18 5 19 6 1 0 0 -6 -3 -14z m686 -20 c10 -12 8 -20 -9 -41 -12 -15 -21
-23 -21 -19 0 5 7 16 16 26 9 10 13 23 9 29 -4 7 -10 8 -14 4 -3 -5 -15 -16
-26 -24 -19 -15 -19 -15 0 12 23 32 28 33 45 13z m-665 -14 c-8 -14 -35 -14
-35 0 0 6 7 9 15 5 8 -3 15 0 15 6 0 6 3 9 6 5 3 -3 3 -10 -1 -16z m-357 -343
l-1 -73 -7 60 -7 60 -1 -58 -2 -58 -26 20 c-32 25 -41 26 -125 4 -63 -16 -68
-16 -93 0 -28 19 -36 63 -14 85 17 17 82 15 142 -4 51 -16 52 -16 90 10 21 14
40 26 42 26 2 0 3 -33 2 -72z m1354 39 c25 -19 29 -19 74 -3 56 19 125 21 142
4 20 -20 14 -65 -10 -82 -28 -20 -49 -20 -115 1 -50 16 -55 16 -88 0 -20 -9
-38 -17 -40 -17 -3 0 -5 24 -6 53 0 38 -3 47 -9 32 -7 -17 -9 -15 -9 12 -1 36
11 36 61 0z m-55 -84 c-3 -10 -5 -2 -5 17 0 19 2 27 5 18 2 -10 2 -26 0 -35z"/>
<path d="M1266 1395 c-3 -8 -3 -15 0 -15 3 0 12 7 20 15 13 13 13 15 1 15 -8
0 -17 -7 -21 -15z"/>
<path d="M900 1367 c-26 -6 -37 -12 -27 -14 9 -3 17 -9 17 -14 0 -5 10 -9 21
-9 19 0 20 -2 8 -16 -11 -14 -10 -19 10 -34 21 -15 23 -23 18 -61 -7 -42 -6
-43 8 -19 18 30 16 127 -2 135 -31 11 -9 25 42 25 56 0 69 -11 38 -29 -10 -6
-15 -11 -11 -11 4 0 2 -13 -3 -30 -8 -23 -7 -41 7 -82 19 -57 32 -43 15 16 -8
32 -7 37 17 55 23 16 24 21 13 35 -12 14 -11 16 8 16 14 0 21 6 21 19 0 30
-107 40 -200 18z"/>
<path d="M770 1308 c-74 -49 -126 -114 -109 -135 10 -11 15 -11 33 4 12 10 18
14 14 9 -14 -17 13 -35 41 -30 24 5 30 1 40 -24 7 -17 21 -38 30 -46 16 -15
17 -14 13 15 -3 18 -21 48 -45 72 -22 23 -40 48 -38 56 2 9 -3 12 -13 8 -9 -4
-16 -3 -16 1 0 12 56 63 66 61 22 -4 35 2 31 14 -2 6 5 17 17 24 12 7 16 12
10 13 -7 0 -40 -19 -74 -42z"/>
<path d="M1158 1338 c13 -6 21 -17 18 -24 -3 -8 0 -16 6 -20 7 -4 6 -9 -3 -15
-7 -4 -12 -22 -11 -41 2 -29 -3 -36 -45 -63 -42 -26 -55 -29 -109 -26 -73 3
-111 -13 -150 -65 -22 -28 -28 -47 -28 -88 l-1 -53 -30 19 c-33 19 -95 24
-124 8 -16 -8 -19 -4 -25 31 -4 22 -11 37 -16 34 -6 -3 -10 1 -10 9 0 9 5 16
10 16 19 0 10 38 -9 43 -25 6 -33 -24 -34 -137 0 -68 4 -90 26 -136 32 -69 38
-75 116 -133 50 -38 66 -45 77 -36 12 10 12 14 -1 29 -15 17 -15 18 2 16 14
-1 18 5 15 31 -2 28 3 36 37 57 47 30 59 46 34 46 -31 0 -79 -36 -93 -69 -15
-38 -26 -39 -62 -4 -34 32 -36 50 -5 56 19 4 18 4 -5 6 -20 1 -28 -4 -28 -15
0 -14 -3 -14 -15 -4 -11 9 -19 10 -28 1 -11 -8 -17 -3 -30 25 -21 43 -21 54
-2 54 8 0 15 7 15 15 0 9 6 12 16 8 11 -4 23 2 33 16 17 22 19 22 80 10 50
-11 71 -21 100 -50 113 -114 302 -31 289 128 -2 29 -13 48 -44 80 l-41 42 53
36 c33 21 56 45 60 60 3 14 11 22 16 19 6 -4 8 2 3 15 -9 29 6 26 38 -7 26
-27 40 -59 15 -34 -19 19 -30 14 -18 -7 8 -16 6 -21 -10 -26 -28 -9 -72 -78
-68 -107 3 -20 7 -17 31 24 26 43 31 47 58 41 25 -5 29 -3 29 18 1 23 1 23 15
6 9 -13 18 -16 29 -10 12 7 9 16 -20 55 -34 45 -144 129 -168 127 -6 0 -1 -5
12 -11z m-88 -216 c106 -53 105 -195 0 -249 -54 -28 -82 -28 -137 -3 -53 24
-83 70 -83 129 0 110 116 176 220 123z"/>
<path d="M948 1074 c-66 -35 -65 -124 2 -159 43 -22 84 -19 119 11 51 42 41
118 -19 149 -36 19 -67 19 -102 -1z m96 -16 c36 -33 42 -68 16 -101 -43 -55
-140 -22 -140 47 0 36 7 48 35 64 31 18 62 14 89 -10z"/>
<path d="M780 1273 c0 -7 3 -13 8 -13 4 0 14 -13 24 -29 9 -16 30 -37 47 -46
42 -21 39 -12 -3 13 -28 17 -34 26 -33 53 2 26 -2 32 -20 34 -14 1 -23 -4 -23
-12z"/>
<path d="M552 1271 c-7 -4 -12 -14 -10 -22 2 -8 -3 -13 -11 -11 -12 3 -12 0
-1 -12 15 -19 21 -20 18 -3 -2 7 8 12 25 11 27 0 28 1 10 14 -10 7 -17 18 -15
23 3 11 1 11 -16 0z"/>
<path d="M1400 1221 c0 -10 19 -25 25 -20 1 2 -3 10 -11 17 -8 7 -14 8 -14 3z"/>
<path d="M484 1139 c-10 -17 23 -46 37 -32 7 7 9 19 6 27 -7 18 -33 21 -43 5z"/>
<path d="M1467 1136 c-7 -17 18 -40 33 -31 5 3 10 15 10 26 0 23 -35 27 -43 5z"/>
<path d="M1340 1086 c0 -8 -7 -13 -16 -12 -9 0 -23 -10 -32 -24 -16 -25 -16
-25 4 -7 22 18 64 23 64 7 0 -5 -4 -10 -9 -10 -5 0 -12 -17 -16 -38 l-6 -39
-38 10 c-43 12 -82 4 -106 -19 -23 -24 -14 -26 40 -13 45 11 49 11 65 -11 11
-15 23 -21 34 -17 10 4 16 1 16 -8 0 -8 7 -15 16 -15 13 0 15 -6 9 -27 -10
-40 -25 -56 -40 -43 -9 8 -15 8 -20 0 -5 -8 -11 -5 -20 6 -11 15 -16 16 -36 6
-22 -11 -22 -12 -2 -7 37 10 37 -15 0 -52 l-35 -36 -26 41 c-28 45 -61 72 -88
72 -29 0 -21 -13 26 -43 42 -26 44 -30 39 -62 -5 -29 -2 -35 12 -35 15 0 15
-3 5 -15 -10 -12 -10 -19 -2 -27 8 -8 22 -4 53 18 23 16 50 34 60 40 27 16 57
57 81 111 17 38 21 66 21 135 -1 48 -4 96 -8 108 -7 22 -45 28 -45 6z"/>
<path d="M666 1071 c-3 -5 6 -16 20 -26 25 -16 25 -16 15 4 -14 25 -28 34 -35
22z"/>
<path d="M1455 1052 c-9 -9 9 -89 23 -99 14 -11 13 -13 -9 -14 -18 -1 -19 -3
-6 -6 18 -5 18 -5 0 -18 -10 -7 -16 -15 -13 -18 11 -9 80 -15 80 -6 0 5 -8 9
-17 10 -13 0 -11 3 7 11 l25 11 -25 6 -25 7 23 12 c24 14 29 36 10 48 -8 5 -9
2 -5 -9 5 -14 0 -17 -25 -17 -25 0 -28 3 -19 14 9 11 9 15 -1 19 -7 3 4 6 25
6 32 1 37 4 37 25 0 21 -4 23 -41 22 -22 0 -42 -2 -44 -4z"/>
<path d="M450 1026 c0 -13 48 -36 76 -36 8 0 14 11 14 25 0 23 -4 25 -45 25
-32 0 -45 -4 -45 -14z"/>
<path d="M738 1033 c7 -3 16 -2 19 1 4 3 -2 6 -13 5 -11 0 -14 -3 -6 -6z"/>
<path d="M1238 1033 c7 -3 16 -2 19 1 4 3 -2 6 -13 5 -11 0 -14 -3 -6 -6z"/>
<path d="M450 971 c0 -5 6 -12 13 -14 10 -4 10 -6 0 -6 -15 -1 -18 -21 -3 -21
6 0 27 7 48 17 l37 16 -30 7 c-44 11 -65 11 -65 1z"/>
<path d="M472 908 c-17 -17 -15 -35 4 -42 13 -5 14 -4 6 7 -15 17 -5 27 26 27
17 0 23 -4 18 -15 -3 -8 0 -15 7 -15 7 -1 -3 -7 -20 -15 -19 -8 -33 -21 -33
-31 0 -14 7 -15 40 -10 48 7 51 2 10 -19 -32 -17 -35 -22 -21 -44 5 -8 14 -10
22 -6 10 7 8 10 -6 15 -15 5 -12 9 16 20 44 17 42 15 29 39 -9 17 -15 19 -30
11 -10 -5 -27 -10 -37 -9 -11 0 -5 7 17 17 32 15 35 20 30 47 -4 25 -11 31
-35 33 -17 2 -36 -3 -43 -10z"/>
<path d="M1181 886 c12 -20 23 -36 25 -36 7 0 -25 58 -36 65 -5 3 -1 -10 11
-29z"/>
<path d="M799 863 c-18 -27 -26 -42 -16 -35 16 14 60 82 52 82 -2 0 -19 -21
-36 -47z"/>
<path d="M1433 846 c-10 -33 -10 -34 28 -49 23 -9 39 -11 39 -5 0 5 -13 15
-30 21 -16 6 -30 15 -30 20 0 9 29 4 64 -9 15 -6 17 -2 16 34 0 4 -9 7 -19 7
-11 0 -23 3 -27 8 -16 15 -31 6 -41 -27z"/>
<path d="M943 775 c10 -51 9 -55 -14 -73 -21 -18 -22 -22 -9 -38 14 -16 13
-17 -7 -12 -15 4 -23 0 -26 -12 -3 -14 3 -19 25 -24 39 -8 136 -8 166 0 28 8
29 34 1 34 -19 0 -20 2 -8 16 12 14 10 19 -14 38 -24 20 -26 25 -17 56 6 19
10 44 10 55 -1 20 -1 20 -16 0 -15 -20 -15 -65 1 -127 7 -28 7 -28 -44 -28
-56 0 -59 5 -35 52 17 33 13 88 -10 107 -10 9 -11 0 -3 -44z"/>
<path d="M1406 785 c-7 -20 28 -55 54 -55 14 0 20 6 19 23 -1 16 -2 18 -6 5
-6 -23 -12 -22 -43 2 -21 16 -22 20 -7 20 10 0 15 5 12 10 -9 15 -22 12 -29
-5z"/>
<path d="M576 762 c-4 -7 -4 -12 1 -12 4 0 -4 -8 -20 -18 -15 -10 -24 -21 -21
-25 3 -3 17 1 31 10 31 20 50 5 34 -26 -7 -12 -16 -21 -21 -21 -6 0 -10 -4
-10 -10 0 -24 44 4 53 35 8 24 -35 85 -47 67z"/>
<path d="M1384 736 c-9 -23 4 -36 34 -36 19 0 23 -3 13 -9 -9 -6 -10 -11 -2
-15 13 -8 26 18 16 34 -3 5 -18 10 -33 10 -19 0 -23 3 -13 9 9 6 10 11 2 15
-6 4 -14 0 -17 -8z"/>
<path d="M1312 656 c-12 -14 -17 -28 -12 -31 6 -4 10 -1 10 5 0 6 5 8 12 4 7
-5 8 -2 3 7 -4 8 5 2 22 -14 16 -15 32 -24 36 -21 4 4 -2 14 -13 21 -11 8 -19
22 -18 30 5 26 -17 25 -40 -1z"/>
<path d="M480 635 c-6 -8 -9 -19 -5 -25 4 -6 1 -9 -7 -8 -8 2 -12 -5 -11 -17
1 -11 4 -31 5 -44 3 -19 -7 -29 -54 -55 -82 -44 -112 -77 -112 -122 0 -70 81
-108 136 -64 14 10 42 51 62 89 l36 70 33 -10 c43 -12 47 -12 47 6 0 8 6 12
13 9 8 -3 20 3 28 12 12 14 10 19 -16 37 -17 11 -55 46 -87 78 -47 49 -58 56
-68 44z m74 -72 c24 -26 42 -52 39 -56 -7 -11 -93 73 -93 90 0 20 6 16 54 -34z
m-14 -28 l34 -35 -32 -11 c-21 -7 -41 -27 -63 -62 -43 -71 -68 -97 -95 -97
-23 0 -54 33 -54 56 0 23 53 75 100 99 34 17 51 33 58 55 6 16 13 30 15 30 1
0 18 -16 37 -35z"/>
<path d="M1457 605 c-20 -24 -57 -58 -82 -76 -42 -30 -44 -33 -29 -50 9 -10
21 -16 25 -13 5 3 9 -2 9 -11 0 -11 6 -14 25 -9 53 13 58 10 91 -56 38 -79 73
-113 114 -113 35 0 75 33 84 69 13 50 -25 91 -142 156 -30 16 -30 18 -20 54 7
28 7 39 -1 42 -6 2 -11 9 -11 17 0 7 -6 17 -13 23 -10 9 -22 1 -50 -33z m43
-3 c0 -4 -22 -30 -50 -57 -27 -27 -50 -43 -50 -35 0 8 19 34 42 57 41 41 58
52 58 35z m76 -127 c72 -50 93 -85 70 -121 -34 -51 -82 -25 -136 74 -14 26
-37 53 -52 60 -36 17 -35 24 4 57 l31 27 12 -29 c6 -15 37 -45 71 -68z"/>
<path d="M666 624 c-9 -8 -16 -25 -15 -37 0 -21 0 -22 9 -2 9 23 40 52 40 38
0 -5 -7 -19 -16 -31 -16 -23 -6 -30 14 -10 17 17 15 58 -2 58 -8 0 -22 -7 -30
-16z"/>
<path d="M1243 604 l-21 -15 19 -34 c13 -21 26 -32 35 -28 22 8 17 29 -11 41
-22 10 -24 14 -13 27 11 12 17 10 41 -15 15 -17 27 -27 27 -22 0 4 -6 14 -12
21 -11 11 -9 12 11 6 20 -6 22 -5 13 10 -12 23 -61 28 -89 9z"/>
<path d="M711 575 c-11 -19 -16 -37 -10 -40 5 -4 9 -2 9 4 0 6 14 18 31 26 25
13 28 19 18 31 -17 21 -25 18 -48 -21z"/>
<path d="M1200 559 c0 -17 -3 -19 -14 -10 -7 6 -27 8 -45 5 -30 -6 -32 -9 -25
-38 4 -17 7 -36 7 -42 0 -12 34 -7 43 7 3 5 -2 6 -12 2 -13 -5 -15 -2 -9 15 4
13 2 22 -4 22 -6 0 -11 5 -11 11 0 5 5 7 10 4 6 -3 10 -1 10 6 0 6 12 0 27
-15 25 -25 28 -26 34 -9 7 17 8 17 8 1 1 -10 6 -18 11 -18 13 0 13 1 -5 44
-17 41 -25 46 -25 15z"/>
<path d="M797 530 c-8 -22 -11 -40 -6 -40 5 0 9 8 9 18 0 13 3 11 13 -7 6 -14
19 -27 27 -29 8 -3 12 -1 8 3 -4 4 -1 23 7 41 14 35 9 44 -13 22 -9 -9 -12 -8
-12 4 0 33 -18 26 -33 -12z"/>
<path d="M877 505 c-19 -40 -22 -58 -6 -35 8 11 12 12 16 3 9 -23 23 -14 23
15 0 48 -15 55 -33 17z"/>
<path d="M1057 534 c-23 -23 7 -95 33 -79 13 8 13 45 -1 45 -6 0 -8 -9 -4 -20
9 -29 -4 -24 -15 6 -13 33 -3 49 18 32 13 -11 14 -11 10 2 -5 17 -30 25 -41
14z"/>
<path d="M928 490 c-2 -22 0 -40 4 -40 5 0 8 10 8 23 1 22 1 22 15 -3 l14 -25
1 23 c0 27 -17 62 -29 62 -5 0 -11 -18 -13 -40z"/>
<path d="M1007 515 c-17 -61 -18 -70 -8 -55 10 13 12 13 20 0 17 -26 21 -4 8
36 -12 32 -15 35 -20 19z"/>
<path d="M1181 494 c0 -11 3 -14 6 -6 3 7 2 16 -1 19 -3 4 -6 -2 -5 -13z"/>
<path d="M670 486 c0 -3 9 -10 20 -16 11 -6 20 -8 20 -6 0 3 -9 10 -20 16 -11
6 -20 8 -20 6z"/>
<path d="M750 440 c8 -5 20 -10 25 -10 6 0 3 5 -5 10 -8 5 -19 10 -25 10 -5 0
-3 -5 5 -10z"/>
<path d="M878 378 c2 -16 9 -28 16 -28 7 0 6 -4 -2 -9 -11 -6 -6 -14 20 -31
18 -13 34 -25 36 -26 2 -1 -6 -32 -17 -69 -33 -107 -28 -156 20 -180 38 -20
62 -19 92 5 35 28 41 68 22 142 -30 110 -30 105 5 123 20 10 30 22 26 30 -3 8
-1 17 3 20 5 2 11 15 13 27 4 23 4 23 -117 23 l-121 0 4 -27z m182 -13 c-7 -8
-20 -15 -29 -16 -10 0 -11 -3 -4 -6 10 -3 10 -9 1 -23 -9 -15 -9 -33 0 -78 19
-90 16 -138 -9 -156 -37 -26 -79 4 -79 57 0 16 7 55 15 87 11 42 12 66 5 84
-7 19 -6 26 3 27 6 1 1 4 -12 8 -14 4 -26 12 -29 19 -3 9 17 12 73 12 68 0 76
-2 65 -15z"/>
</g>
</svg>
