<?xml version="1.0" standalone="no"?>
<!DOCTYPE svg PUBLIC "-//W3C//DTD SVG 20010904//EN"
 "http://www.w3.org/TR/2001/REC-SVG-20010904/DTD/svg10.dtd">
<svg version="1.0" xmlns="http://www.w3.org/2000/svg"
 width="700.000000pt" height="700.000000pt" viewBox="0 0 700.000000 700.000000"
 preserveAspectRatio="xMidYMid meet">

<g transform="translate(0.000000,700.000000) scale(0.100000,-0.100000)"
fill="#000000" stroke="none">
<path d="M3363 6844 c-60 -22 -126 -84 -154 -146 -21 -46 -24 -68 -24 -163 1
-92 6 -130 33 -230 18 -66 48 -162 67 -213 19 -51 35 -103 35 -116 0 -30 -34
-59 -140 -122 -44 -26 -82 -56 -86 -66 -8 -26 12 -46 52 -54 39 -7 46 -24 10
-24 -14 0 -36 -4 -50 -10 -25 -9 -26 -13 -26 -85 0 -52 -4 -77 -12 -79 -7 -1
-65 -16 -128 -31 -197 -48 -369 -119 -597 -246 l-43 -24 -46 53 c-63 72 -74
77 -117 47 l-36 -24 16 34 c23 47 12 65 -37 65 -23 0 -49 -4 -58 -9 -35 -19
-172 -42 -190 -32 -19 10 -23 17 -105 192 -100 213 -201 345 -308 400 -66 34
-157 33 -231 -4 -125 -61 -203 -204 -179 -324 30 -150 163 -269 457 -409 98
-47 137 -70 143 -87 10 -25 1 -85 -24 -170 -8 -28 -15 -68 -15 -89 0 -35 2
-38 29 -38 15 0 40 9 55 21 33 26 33 18 1 -29 -14 -20 -25 -41 -25 -46 0 -6
21 -31 46 -57 l45 -46 -53 -79 c-99 -146 -249 -472 -234 -511 3 -8 2 -12 -3
-9 -8 5 -33 -76 -55 -176 -6 -28 -7 -28 -91 -28 -46 0 -87 -4 -90 -10 -3 -5
-9 -29 -14 -52 l-7 -43 -15 45 c-15 47 -38 61 -64 40 -8 -7 -33 -46 -56 -86
-55 -101 -84 -134 -118 -134 -15 0 -77 19 -137 41 -228 86 -410 116 -516 85
-121 -35 -196 -131 -206 -264 -9 -135 46 -242 153 -297 54 -28 66 -30 159 -29
116 0 245 30 411 94 145 56 149 57 180 25 14 -16 45 -65 70 -110 24 -45 51
-88 59 -94 26 -22 50 -9 60 32 11 44 26 49 26 8 0 -58 4 -61 101 -61 89 0 89
0 95 -27 50 -233 165 -508 294 -699 27 -41 50 -80 50 -87 0 -7 -16 -28 -35
-47 -19 -19 -35 -38 -35 -44 0 -5 11 -24 25 -42 33 -43 32 -50 -5 -24 -39 28
-74 23 -78 -9 -2 -14 8 -75 24 -137 35 -146 37 -143 -139 -227 -370 -177 -500
-342 -432 -548 24 -72 119 -168 189 -192 134 -46 255 3 364 145 57 76 125 197
177 318 25 57 53 112 62 122 22 25 72 23 177 -8 100 -28 136 -26 136 9 0 13
-7 32 -15 43 -24 32 -17 36 18 10 19 -15 38 -26 43 -26 6 0 32 23 59 50 27 28
55 50 63 50 7 0 32 -13 55 -29 139 -95 466 -220 670 -255 l37 -7 0 -80 c0 -76
1 -80 26 -89 14 -6 36 -10 50 -10 36 0 29 -17 -10 -24 -40 -8 -60 -28 -52 -54
4 -10 42 -40 86 -66 106 -63 140 -92 140 -122 0 -13 -16 -66 -36 -119 -97
-261 -126 -490 -75 -603 29 -65 96 -125 163 -148 67 -22 187 -16 243 14 61 31
121 101 139 163 33 111 11 294 -60 493 -20 56 -43 127 -52 158 -16 54 -15 58
3 78 11 12 62 47 113 78 52 31 97 62 100 70 8 22 -11 44 -49 58 -36 13 -29 21
26 26 29 3 30 5 32 58 5 108 10 119 51 126 84 14 243 58 332 91 100 37 303
136 365 178 20 14 42 25 49 25 7 0 34 -23 60 -50 l46 -51 46 32 c26 17 45 28
43 23 -3 -5 -13 -25 -23 -46 -36 -70 -6 -83 118 -49 120 32 140 34 168 11 15
-11 39 -54 58 -102 111 -278 246 -462 371 -503 179 -60 383 97 384 295 0 160
-139 302 -446 455 -62 31 -122 64 -131 73 -24 21 -23 61 7 167 40 144 31 176
-42 141 l-35 -16 21 29 c30 41 27 58 -20 108 -40 44 -41 44 -23 71 152 231
255 461 309 695 l19 77 93 0 c100 0 101 0 107 56 5 42 6 42 20 5 29 -80 59
-65 132 66 26 46 59 93 72 104 29 22 42 20 162 -28 238 -95 457 -124 568 -74
218 99 221 446 5 552 -103 51 -330 23 -552 -67 -47 -19 -104 -39 -125 -44 -35
-8 -42 -6 -66 18 -14 15 -45 61 -68 103 -68 124 -104 139 -128 53 -12 -42 -15
-38 -29 34 l-7 33 -91 -2 -90 -2 -28 109 c-51 203 -135 400 -247 578 -34 54
-62 101 -62 105 0 4 14 20 31 37 17 16 40 42 51 57 l20 28 -26 34 c-34 44 -33
48 8 28 19 -9 42 -13 51 -9 21 8 17 54 -15 179 -34 126 -34 126 135 211 169
86 250 140 331 220 83 84 109 140 109 236 -1 87 -21 134 -88 207 -140 152
-332 127 -474 -62 -54 -72 -153 -256 -193 -360 -13 -33 -32 -73 -43 -89 -19
-26 -23 -28 -66 -22 -25 3 -83 16 -128 27 -116 30 -143 14 -104 -61 l21 -41
-37 26 c-21 14 -43 25 -49 25 -7 0 -36 -26 -64 -57 l-53 -57 -56 32 c-95 56
-292 149 -381 182 -47 18 -146 47 -220 66 -74 19 -138 38 -142 42 -4 4 -8 41
-10 82 l-3 75 -35 3 c-52 5 -56 17 -10 31 36 11 41 15 38 38 -2 22 -21 37 -95
82 -125 77 -136 87 -129 131 3 19 23 82 45 140 80 215 110 424 75 539 -21 73
-88 144 -160 171 -65 24 -169 26 -231 4z m180 -75 c25 -11 87 -98 87 -121 0
-8 6 -20 13 -27 10 -11 10 -13 0 -7 -15 8 -18 -10 -3 -19 7 -4 6 -14 -1 -28
-9 -16 -9 -22 0 -25 15 -5 14 -32 -1 -33 -8 0 -9 -2 -2 -5 12 -5 8 -75 -7
-139 -12 -51 -18 -81 -24 -128 -3 -21 -10 -47 -16 -58 -6 -12 -12 -53 -14 -93
-2 -58 1 -79 21 -117 13 -26 29 -53 37 -60 30 -31 79 -112 83 -138 l5 -28 -86
-7 c-88 -7 -288 -6 -362 2 -25 2 -43 9 -43 17 0 20 30 76 75 140 68 98 82 160
57 270 -7 33 -14 66 -15 75 -2 8 -6 20 -9 26 -4 5 -9 33 -12 62 -3 28 -9 60
-15 70 -5 10 -6 24 -2 31 5 7 5 31 0 54 -4 23 -4 46 -1 52 9 15 10 45 0 45 -4
0 -8 5 -8 11 0 5 4 8 8 5 5 -3 8 10 7 29 0 18 2 32 6 29 4 -2 10 3 13 12 3 9
2 12 -5 8 -6 -3 0 11 14 32 33 53 91 86 139 79 21 -3 48 -10 61 -16z m2161
-864 c32 -15 89 -67 87 -79 -3 -19 0 -26 10 -20 8 4 9 -1 4 -16 -4 -13 -3 -20
2 -17 11 7 11 -58 0 -69 -4 -4 -1 -14 6 -22 9 -13 9 -14 0 -8 -9 5 -13 1 -13
-11 0 -10 -7 -28 -15 -39 -8 -12 -11 -25 -7 -29 4 -5 2 -5 -5 -1 -7 4 -18 -4
-27 -21 -16 -33 -106 -123 -121 -123 -5 0 -23 -11 -39 -25 -15 -13 -49 -34
-74 -46 -25 -13 -53 -30 -62 -38 -9 -9 -31 -24 -49 -33 -17 -10 -36 -28 -41
-40 -5 -13 -9 -18 -9 -13 -2 25 -63 -111 -66 -145 -1 -21 -6 -43 -9 -49 -4 -6
-5 -15 -1 -20 3 -5 1 -12 -5 -16 -5 -3 -10 -11 -10 -16 0 -6 4 -8 9 -5 5 4 7
-3 4 -14 -3 -11 -10 -20 -15 -20 -5 0 -6 -4 -3 -10 3 -5 2 -10 -4 -10 -17 0
-341 325 -341 343 0 12 14 21 44 29 25 6 43 15 40 19 -2 5 6 6 18 3 13 -2 47
-5 77 -5 53 -1 54 0 108 57 57 61 109 134 96 134 -5 0 -3 4 3 8 6 4 26 36 46
72 19 36 42 77 51 91 10 14 14 28 11 31 -3 4 4 9 15 13 11 3 23 15 26 26 8 26
79 96 105 104 11 4 17 11 14 17 -4 6 -3 8 3 5 6 -4 18 -1 27 6 26 19 73 20
110 2z m-4348 -7 c3 -4 12 -8 21 -8 8 0 26 -10 40 -22 76 -70 104 -100 129
-139 15 -24 33 -50 41 -57 7 -8 11 -18 8 -23 -4 -5 -2 -9 3 -9 5 0 22 -24 37
-52 39 -74 81 -132 141 -195 54 -58 78 -65 153 -49 20 4 38 2 46 -4 7 -6 26
-13 42 -14 15 -2 31 -4 36 -5 28 -4 -11 -57 -140 -191 -82 -83 -156 -156 -165
-161 -27 -15 -50 21 -55 83 -7 93 -8 103 -13 108 -3 3 -14 22 -25 43 -21 42
-109 127 -131 127 -8 0 -14 3 -14 8 0 4 -20 16 -45 27 -25 11 -45 23 -45 27 0
5 -4 8 -9 8 -14 0 -102 60 -128 87 -12 13 -28 23 -34 23 -7 0 -10 3 -7 6 3 3
-7 19 -23 37 -26 28 -31 40 -28 63 0 3 -7 11 -16 18 -9 6 -16 16 -15 21 5 22
-1 36 -12 29 -7 -4 -8 -3 -4 4 3 6 7 27 8 47 1 19 5 35 10 35 4 0 8 5 8 11 0
5 -4 7 -10 4 -6 -3 -7 1 -4 9 3 9 10 16 15 16 5 0 9 6 9 13 0 14 43 58 75 76
22 12 93 12 101 -1z m2253 -633 c16 -8 30 -22 32 -32 7 -31 -6 -188 -15 -188
-5 0 -8 40 -7 88 2 57 -2 94 -10 103 -15 19 -73 18 -89 -1 -10 -13 -9 -15 9
-15 25 0 28 -15 5 -28 -11 -6 -18 -29 -21 -75 -9 -105 -24 -78 -21 35 3 98 4
103 28 115 33 17 55 16 89 -2z m-244 -15 c14 -15 19 -42 23 -117 6 -122 -9
-115 -23 10 l-10 92 -42 3 c-38 3 -43 1 -49 -22 -8 -33 -24 -34 -24 -2 0 51
89 76 125 36z m-1285 -5 c0 -8 -4 -15 -8 -15 -4 0 -25 -16 -45 -35 -48 -45
-48 -34 1 20 40 47 52 53 52 30z m1781 -24 c15 -18 15 -29 3 -103 -8 -46 -14
-89 -14 -95 0 -7 -5 -13 -11 -13 -8 0 -10 16 -5 50 3 28 9 72 12 98 6 47 5 49
-24 61 -31 13 -72 2 -72 -19 0 -6 -4 -10 -10 -10 -18 0 -10 29 13 45 28 21 86
13 108 -14z m1088 -18 c13 -15 33 -38 44 -50 42 -47 9 -21 -48 38 -33 34 -51
57 -40 51 11 -6 31 -23 44 -39z m-1804 15 c3 -13 12 -57 20 -98 15 -73 15 -75
-5 -92 -25 -20 -107 -35 -121 -21 -15 15 -27 69 -19 83 5 8 1 19 -12 30 -41
33 -12 110 43 110 26 0 51 -38 38 -62 -14 -26 -54 -23 -66 5 -10 20 -11 21
-18 4 -10 -25 16 -50 52 -49 43 0 49 -9 14 -24 -33 -14 -43 -52 -18 -72 12
-10 81 -2 94 12 3 3 -2 43 -11 88 -9 46 -16 89 -16 96 0 21 19 13 25 -10z
m925 -40 c27 -13 50 -26 50 -30 0 -12 -14 -9 -64 13 -37 16 -50 18 -62 9 -15
-13 -20 -35 -6 -26 16 10 84 -18 94 -39 6 -14 3 -38 -9 -80 -16 -52 -22 -60
-46 -63 -21 -3 -28 2 -33 22 -8 32 11 58 39 54 15 -2 22 4 28 24 9 34 -8 50
-64 58 -37 5 -42 8 -39 30 3 26 26 50 49 50 8 0 36 -10 63 -22z m324 0 c8 -13
8 -23 -1 -37 -11 -18 -9 -21 23 -31 29 -10 39 -9 59 4 14 9 26 12 30 6 3 -5
-6 -17 -20 -26 -22 -14 -31 -15 -69 -4 -72 20 -106 66 -74 98 16 16 38 12 52
-10z m-1527 -20 c5 -7 22 -49 38 -93 15 -44 30 -86 33 -94 3 -8 0 -12 -8 -9
-7 2 -27 44 -45 92 -17 48 -36 88 -41 88 -22 2 -35 -48 -30 -118 3 -39 8 -78
12 -88 4 -11 1 -16 -13 -16 -15 0 -24 15 -39 63 -17 52 -24 62 -43 62 -13 0
-30 9 -37 21 -13 19 -12 24 4 44 26 33 55 14 73 -47 l14 -48 6 58 c9 77 48
121 76 85z m-944 -70 c-71 -75 -117 -121 -139 -138 -11 -7 26 32 81 88 55 56
101 102 104 102 2 0 -19 -24 -46 -52z m648 42 c32 -18 22 -30 -53 -65 l-73
-34 -3 26 c-7 55 75 101 129 73z m1698 -21 c18 -6 38 -24 47 -40 14 -27 12
-34 -18 -110 -33 -84 -48 -100 -73 -79 -11 9 -13 23 -9 50 5 32 3 38 -16 43
-17 4 -21 12 -18 33 3 31 28 50 52 41 18 -7 22 -62 7 -115 -16 -56 9 -33 35
33 28 69 29 83 7 107 -18 20 -83 25 -83 6 0 -9 -3 -9 -12 1 -11 10 -9 15 6 27
24 17 33 17 75 3z m936 -168 c3 -8 -37 27 -90 79 -52 52 -95 96 -95 98 0 8
180 -163 185 -177z m-2623 72 c30 -34 79 -144 73 -163 -12 -39 -61 -34 -72 8
-4 18 -1 29 12 39 18 13 18 15 -3 58 -12 25 -27 46 -34 46 -46 4 -82 -24 -73
-59 4 -17 2 -23 -7 -20 -21 7 -21 48 -1 70 35 39 81 48 105 21z m1974 -61 c13
-9 28 -29 34 -43 10 -24 6 -36 -36 -108 -42 -74 -64 -98 -64 -71 0 5 18 39 40
75 47 77 49 96 14 124 -45 36 -66 28 -106 -41 -20 -34 -36 -64 -34 -65 2 -2
17 0 34 3 27 5 31 10 26 29 -3 13 1 28 11 39 22 22 55 4 55 -29 0 -28 -33 -49
-98 -63 -65 -15 -70 -3 -27 73 62 111 87 124 151 77z m-837 -37 c224 -33 440
-113 628 -233 92 -59 159 -108 182 -135 13 -15 30 -26 37 -23 7 3 11 0 8 -7
-2 -7 6 -17 18 -22 13 -6 22 -16 21 -23 -2 -7 4 -12 13 -12 14 0 14 3 4 15
-11 14 -7 19 13 16 4 0 7 4 7 10 0 6 9 8 23 3 21 -6 21 -6 -3 15 -19 16 -21
19 -6 14 14 -5 17 -3 11 7 -6 10 -4 11 6 4 8 -5 17 -9 21 -9 3 0 10 -4 15 -9
5 -6 2 -6 -7 -1 -8 5 -12 4 -7 0 13 -15 35 -14 41 2 4 9 2 12 -7 7 -6 -4 -1 4
13 18 18 20 28 24 37 16 10 -8 13 -6 13 5 0 8 7 17 15 21 8 3 14 0 12 -7 -1
-7 7 -11 21 -9 12 2 22 -2 22 -7 0 -6 5 -11 10 -11 6 0 10 8 10 18 0 14 2 15
10 2 5 -8 10 -10 10 -5 1 12 30 -25 30 -38 0 -4 -5 -5 -12 -1 -6 4 -8 3 -5 -3
8 -12 -40 -56 -53 -48 -6 3 -8 0 -5 -7 2 -7 -7 -21 -20 -31 -24 -17 -24 -17
-19 0 5 16 4 16 -5 2 -6 -9 -8 -27 -6 -39 10 -50 28 -42 113 44 45 47 82 80
82 74 0 -6 3 -8 7 -5 3 4 -1 15 -9 24 -18 20 -18 69 0 66 6 -2 9 4 6 12 -4 8
-10 15 -14 15 -12 0 -30 -26 -23 -33 3 -4 4 -7 1 -7 -3 0 -13 9 -23 20 -18 20
-18 21 0 14 11 -5 22 -2 29 7 6 8 20 15 31 16 11 1 31 5 45 8 17 4 31 0 45
-13 28 -27 65 -71 65 -77 0 -3 10 -16 21 -28 43 -44 150 -217 197 -318 27 -57
65 -153 85 -214 20 -60 48 -146 62 -190 14 -44 27 -91 28 -105 1 -14 7 -23 12
-20 6 3 9 36 8 73 -2 75 3 84 12 22 52 -359 12 -739 -111 -1053 -154 -394
-442 -748 -804 -986 -489 -322 -1095 -432 -1675 -306 -648 141 -1213 595
-1481 1189 -148 327 -207 687 -169 1031 18 166 31 217 21 85 -3 -44 -2 -73 1
-65 3 8 11 18 16 22 6 3 11 14 12 25 1 10 7 31 14 46 6 16 11 35 11 44 0 31
93 290 141 391 50 106 117 225 131 230 4 2 8 9 8 15 0 14 107 150 121 155 5 2
9 8 9 14 0 14 24 35 46 40 10 2 19 8 18 13 -1 13 29 35 39 28 5 -3 6 -11 3
-19 -4 -10 2 -14 18 -14 26 0 43 -27 26 -44 -15 -15 -12 -43 6 -71 9 -13 13
-28 11 -32 -3 -5 3 -9 13 -10 10 -1 37 -22 59 -46 61 -66 79 -65 136 3 18 21
19 23 2 17 -12 -5 -17 -3 -15 5 2 6 18 12 35 12 17 1 29 -2 26 -6 -2 -5 1 -8
6 -8 20 0 26 5 23 20 -2 11 1 10 8 -3 6 -9 16 -15 22 -11 7 4 6 9 -3 14 -10 7
-9 11 2 22 23 22 65 9 55 -18 -3 -8 -1 -14 4 -14 6 0 10 5 10 10 0 6 7 10 15
10 8 0 25 10 37 22 134 134 450 291 688 342 184 39 407 47 589 21z m-1324 -16
c14 -43 -40 -109 -89 -109 -24 0 -42 45 -26 65 18 22 51 19 57 -5 3 -11 9 -20
13 -20 12 0 24 40 21 68 -3 28 15 29 24 1z m73 -123 c4 -35 -19 -70 -57 -86
-39 -16 -63 1 -59 39 4 34 40 40 61 11 l15 -22 11 21 c6 11 8 33 5 47 -5 20
-3 26 7 22 8 -2 15 -17 17 -32z m2311 3 c46 -45 41 -73 -24 -152 -31 -37 -60
-65 -65 -62 -6 4 15 37 46 76 45 56 55 74 50 94 -8 31 -50 60 -73 50 -17 -6
-17 -7 0 -16 25 -14 21 -29 -7 -29 -17 0 -37 -15 -65 -47 -22 -26 -43 -44 -47
-40 -9 9 67 107 84 107 11 0 12 3 3 13 -15 19 5 37 40 37 17 0 39 -11 58 -31z
m-2548 -87 c16 -18 34 -30 40 -27 12 8 49 -22 49 -40 0 -7 -9 -20 -19 -29 -16
-15 -23 -15 -41 -6 -22 12 -22 11 -16 -24 4 -20 3 -36 -2 -36 -5 0 -35 29 -67
65 -31 36 -63 65 -71 65 -23 0 -64 -47 -64 -72 1 -21 2 -22 14 -5 19 25 29 21
23 -8 -2 -16 2 -34 12 -47 15 -18 20 -19 38 -8 32 20 55 6 51 -32 -4 -48 -32
-48 -79 -2 -21 21 -39 44 -39 52 0 8 -6 12 -15 8 -9 -3 -19 3 -26 15 -21 40
35 119 85 119 11 0 42 -21 67 -46 l48 -47 7 37 c6 35 3 41 -36 81 -27 28 -40
48 -35 56 6 9 13 6 27 -11 11 -13 33 -39 49 -58z m-241 6 c0 -4 -7 -8 -15 -8
-8 0 -15 4 -15 8 0 5 7 9 15 9 8 0 15 -4 15 -9z m30 2 c0 -5 -2 -10 -4 -10 -3
0 -8 5 -11 10 -3 6 -1 10 4 10 6 0 11 -4 11 -10z m2955 -20 c0 -22 -5 -30 -17
-30 -11 0 -15 5 -12 14 3 8 -1 18 -8 22 -9 6 -6 10 12 15 14 4 25 7 25 8 0 1
0 -12 0 -29z m60 11 c-3 -6 -11 -11 -17 -11 -6 0 -6 6 2 15 14 17 26 13 15 -4z
m-3015 -22 c0 -8 6 -7 17 2 9 8 5 -2 -9 -21 -14 -19 -28 -44 -31 -55 -5 -20
-5 -20 -6 1 0 11 5 29 13 40 10 13 11 23 4 31 -7 9 -7 13 1 13 6 0 11 -5 11
-11z m177 -16 c5 3 9 -3 10 -13 2 -17 0 -17 -23 2 -25 23 -34 39 -9 18 8 -6
18 -9 22 -7z m2658 -13 c3 -5 1 -10 -4 -10 -6 0 -11 5 -11 10 0 6 2 10 4 10 3
0 8 -4 11 -10z m-71 -25 c-9 -14 -18 -25 -21 -25 -5 0 5 18 20 38 17 22 18 13
1 -13z m162 -9 c49 -49 45 -69 -33 -142 -38 -35 -71 -64 -75 -64 -19 0 -3 22
57 78 36 33 65 66 65 72 0 6 -14 25 -30 42 -25 25 -33 28 -45 18 -20 -17 -32
-5 -15 15 19 23 39 18 76 -19z m-2811 4 c18 -20 18 -21 0 -14 -14 6 -16 4 -10
-6 5 -9 4 -11 -3 -6 -7 4 -12 2 -12 -4 0 -6 11 -8 24 -6 23 4 41 -9 61 -42 6
-11 3 -12 -14 -2 -12 6 -19 15 -16 20 3 5 1 11 -5 15 -5 3 -10 1 -10 -5 0 -6
-4 -8 -10 -5 -5 3 -10 2 -10 -4 0 -6 -7 -7 -17 -4 -12 5 -14 3 -8 -8 4 -8 5
-11 0 -7 -14 13 -12 76 3 71 6 -3 12 0 12 7 0 8 -9 11 -25 8 -13 -3 -22 -1
-19 3 9 16 40 10 59 -11z m2559 11 c3 -5 -2 -15 -12 -22 -15 -12 -16 -12 -5 2
7 9 10 19 6 22 -3 4 -4 7 0 7 3 0 8 -4 11 -9z m56 -45 c0 -2 -8 -10 -17 -17
-16 -13 -17 -12 -4 4 13 16 21 21 21 13z m-2456 -25 c-13 -12 -21 -15 -26 -7
-6 9 6 17 41 25 3 1 -4 -7 -15 -18z m-1068 -820 c-4 -25 -7 -56 -7 -68 1 -12
-4 -25 -9 -28 -6 -4 -8 -11 -5 -16 6 -8 11 -65 18 -197 1 -24 -1 -46 -5 -48
-5 -3 -3 -14 2 -25 6 -11 7 -19 2 -19 -6 0 -13 -10 -18 -22 -4 -14 -10 58 -14
177 -8 229 -7 215 -20 215 -6 0 -10 -75 -10 -205 0 -113 -2 -205 -4 -205 -17
0 -36 15 -36 27 0 9 -6 13 -15 9 -8 -3 -14 -1 -12 4 5 22 -133 87 -182 86 -23
0 -41 2 -41 6 0 4 -13 3 -29 -2 -16 -4 -31 -6 -34 -4 -2 2 -31 -7 -65 -20 -34
-14 -62 -23 -62 -21 0 2 -18 -2 -39 -10 -61 -21 -110 -29 -183 -30 -38 0 -68
-3 -68 -8 0 -4 -8 -3 -17 2 -30 16 -57 24 -72 22 -7 -1 -11 2 -8 6 3 5 -8 15
-23 22 -16 7 -29 16 -28 19 3 16 -15 41 -26 35 -7 -4 -7 -2 1 7 9 10 8 18 -8
38 -13 17 -16 29 -9 37 5 6 7 15 3 19 -10 10 -13 36 -3 36 4 0 13 19 19 43 15
52 67 92 131 101 85 12 160 14 160 5 0 -5 19 -7 43 -4 31 4 38 2 27 -5 -11 -8
-8 -9 13 -4 17 4 27 2 27 -6 0 -6 4 -8 10 -5 11 7 70 -10 188 -54 46 -17 94
-31 106 -31 27 0 99 53 88 65 -4 4 3 5 16 2 15 -3 22 -1 22 9 0 8 9 14 21 14
11 0 17 5 14 10 -3 6 1 10 9 10 8 0 22 10 30 22 15 21 16 21 29 3 13 -17 15
-17 32 13 27 46 49 32 41 -27z m4590 2 c7 18 34 24 34 7 0 -6 11 -16 25 -22
14 -6 25 -18 25 -25 0 -8 4 -11 10 -8 12 8 46 -10 88 -46 18 -16 42 -29 53
-29 11 0 73 20 139 44 105 39 207 68 228 65 4 -1 9 -1 12 1 3 1 38 3 78 4 47
2 72 -1 72 -8 0 -6 5 -4 10 4 5 8 10 10 10 3 0 -6 8 -10 18 -9 19 3 59 -12 83
-31 9 -7 19 -10 24 -6 4 5 5 2 1 -4 -4 -7 -3 -13 3 -13 6 0 14 -12 17 -27 4
-16 10 -30 14 -33 9 -7 22 -72 12 -66 -4 2 -7 -15 -6 -37 0 -23 -2 -44 -6 -47
-4 -3 -13 -18 -21 -35 -9 -18 -22 -29 -33 -28 -9 0 -15 -2 -12 -5 5 -5 -32
-37 -44 -37 -3 0 -11 -4 -17 -8 -8 -5 -13 -3 -13 4 0 9 -3 9 -14 0 -7 -6 -40
-12 -72 -12 -62 0 -71 1 -143 21 -25 6 -54 13 -65 15 -12 1 -42 11 -67 23 -68
30 -176 41 -240 25 -29 -7 -59 -18 -66 -24 -7 -7 -13 -9 -13 -6 0 3 -19 -12
-42 -33 -23 -22 -45 -37 -50 -34 -4 3 -11 -3 -15 -12 -15 -39 -22 26 -22 216
-1 130 -5 190 -11 180 -5 -8 -10 -105 -10 -220 0 -193 -1 -203 -17 -187 -14
14 -18 38 -19 127 -2 73 1 108 8 104 6 -4 5 2 -1 15 -9 16 -9 21 0 21 7 0 8 4
2 13 -5 6 -9 27 -8 46 1 18 -4 58 -11 87 -11 47 -10 56 4 70 14 15 17 13 38
-22 19 -31 24 -35 30 -21z m-4018 -1612 c33 -35 77 -96 74 -104 -1 -4 1 -6 5
-6 19 3 34 -2 29 -9 -2 -4 15 -26 40 -48 92 -81 133 -122 127 -128 -3 -3 2
-17 11 -31 11 -16 12 -25 5 -25 -7 0 -17 -7 -23 -15 -9 -13 -34 8 -156 129
-79 80 -150 155 -157 168 -16 29 -16 61 -1 76 16 16 25 15 46 -7z m3430 7 c7
-7 12 -25 12 -41 0 -25 -20 -50 -119 -146 -211 -207 -198 -195 -214 -180 -32
33 -28 60 16 103 23 23 47 41 52 41 6 1 9 7 7 14 -1 7 7 15 18 18 11 3 17 9
14 14 -5 8 9 13 28 10 4 0 5 6 2 14 -4 8 -2 15 2 15 13 0 76 60 113 108 34 44
49 50 69 30z m-3319 -274 c56 -58 101 -111 101 -117 0 -8 -3 -8 -11 0 -7 7
-21 8 -40 3 -16 -5 -29 -7 -29 -4 0 2 -15 -3 -32 -13 -18 -9 -38 -16 -44 -15
-16 3 -143 -136 -163 -178 -9 -19 -19 -37 -22 -40 -3 -3 -11 -20 -18 -37 -8
-18 -17 -33 -22 -33 -5 0 -8 -3 -7 -7 4 -13 -56 -112 -64 -107 -4 3 -8 -2 -8
-10 0 -9 -4 -16 -10 -16 -5 0 -10 -5 -10 -11 0 -17 -75 -89 -93 -89 -8 0 -17
-5 -19 -12 -6 -17 -148 -18 -148 -1 0 7 -5 13 -11 13 -7 0 -28 17 -48 37 -20
21 -29 33 -22 28 8 -5 5 6 -8 23 -12 18 -17 32 -11 32 7 0 5 10 -4 29 -11 21
-12 31 -3 40 6 6 7 11 3 11 -5 0 -1 11 8 25 9 14 13 25 9 25 -4 0 2 7 13 16
10 8 12 12 4 8 -10 -5 -9 0 4 17 27 33 99 99 108 99 4 0 8 6 8 14 0 11 27 30
38 26 1 0 9 5 16 12 28 28 68 54 162 102 78 40 106 61 132 96 18 25 36 50 40
55 5 6 9 17 9 25 1 25 7 44 21 59 8 8 9 17 4 20 -5 3 -9 14 -9 23 0 25 54 -20
176 -148z m3332 152 c-11 -13 -8 -48 6 -86 4 -8 7 -17 8 -20 8 -22 21 -46 32
-59 8 -9 25 -31 40 -49 17 -21 59 -49 118 -78 51 -25 96 -52 99 -61 4 -9 9
-14 12 -11 5 5 36 -19 103 -79 19 -18 38 -33 42 -33 14 0 88 -121 83 -134 -3
-8 0 -17 5 -21 6 -3 8 -11 5 -17 -4 -6 0 -14 7 -19 9 -5 10 -9 2 -9 -6 0 -10
-11 -8 -25 1 -14 -2 -25 -6 -25 -5 0 -8 -3 -8 -7 4 -20 -25 -73 -43 -79 -11
-3 -17 -8 -14 -11 10 -10 -47 -35 -84 -38 -37 -2 -119 18 -129 32 -3 5 -21 19
-38 32 -18 12 -33 29 -33 37 0 8 -7 14 -15 14 -8 0 -15 6 -15 13 0 7 -12 30
-27 52 -29 42 -54 87 -112 200 -47 93 -144 188 -201 199 -14 2 -25 5 -25 7 0
2 -39 9 -67 12 -20 2 27 59 129 158 83 81 170 149 134 105z m-1528 -678 c21
-11 22 -41 2 -58 -8 -7 -15 -19 -15 -26 0 -8 -3 -13 -7 -13 -5 1 -43 1 -85 0
-84 -1 -111 -21 -30 -22 53 0 108 -17 62 -18 -16 -1 -21 -4 -13 -9 16 -10 -16
-40 -37 -34 -11 2 -12 1 -3 -5 9 -7 9 -19 -3 -53 -27 -77 -22 -157 17 -275 13
-38 24 -72 24 -75 1 -3 4 -18 8 -35 12 -52 19 -137 18 -220 -1 -98 -2 -105
-13 -105 -4 0 -8 -8 -8 -18 0 -10 -9 -24 -19 -32 -11 -7 -18 -17 -15 -22 3 -4
1 -8 -4 -8 -5 0 -19 -9 -32 -20 -13 -12 -30 -18 -38 -15 -7 3 -22 0 -33 -6
-16 -8 -26 -7 -45 6 -18 11 -24 12 -25 3 0 -10 -2 -10 -6 0 -2 6 -10 12 -16
12 -20 0 -63 46 -76 81 -7 19 -17 43 -21 54 -13 33 -12 85 2 85 8 0 9 3 3 8
-12 8 -14 102 -3 102 5 0 8 17 8 38 0 33 29 160 47 202 22 54 29 129 17 195
-3 17 -6 38 -7 48 -1 9 -4 17 -7 17 -4 0 -12 16 -20 35 -7 19 -23 38 -34 42
-20 6 -20 7 4 14 14 4 52 8 85 8 89 2 48 21 -45 21 -82 0 -87 2 -113 42 -21
33 -21 33 -1 52 13 13 48 16 237 14 122 0 230 -5 240 -10z"/>
<path d="M3047 5203 c-4 -3 -7 -12 -7 -20 0 -15 26 -18 34 -4 7 11 -18 33 -27
24z"/>
<path d="M4010 5000 c0 -11 7 -20 15 -20 8 0 15 9 15 20 0 11 -7 20 -15 20 -8
0 -15 -9 -15 -20z"/>
<path d="M4355 5170 c-4 -6 -3 -16 3 -22 6 -6 12 -6 17 2 4 6 3 16 -3 22 -6 6
-12 6 -17 -2z"/>
<path d="M2712 5084 c4 -21 22 -23 26 -1 2 10 -3 17 -13 17 -10 0 -15 -6 -13
-16z"/>
<path d="M2488 5104 c-16 -8 -28 -21 -28 -28 0 -10 11 -9 45 7 25 12 45 24 45
29 0 13 -32 9 -62 -8z"/>
<path d="M4200 5010 c0 -11 6 -20 13 -20 19 0 27 10 20 26 -8 21 -33 17 -33
-6z"/>
<path d="M2607 4884 c-14 -15 -6 -34 14 -34 14 0 19 5 17 17 -3 18 -20 27 -31
17z"/>
<path d="M4486 4883 c-12 -12 -6 -33 9 -33 8 0 15 6 15 14 0 17 -14 28 -24 19z"/>
<path d="M3375 4819 c-241 -15 -488 -101 -692 -240 -102 -71 -265 -229 -336
-327 -189 -262 -276 -572 -247 -880 6 -63 15 -135 21 -160 5 -24 8 -47 5 -49
-2 -3 -9 21 -16 51 -13 62 -30 66 -30 7 0 -86 46 -240 112 -376 41 -86 131
-216 145 -210 7 2 10 -1 8 -8 -3 -7 5 -23 16 -36 17 -21 22 -23 30 -10 9 12
10 12 6 -1 -5 -18 10 -50 23 -50 5 0 7 8 4 18 -5 14 -3 14 10 -2 9 -11 16 -14
16 -7 0 7 5 9 10 6 6 -4 8 -10 5 -15 -3 -5 4 -7 17 -5 12 3 29 -3 38 -13 68
-71 241 -189 354 -241 200 -94 389 -136 606 -136 353 0 632 105 937 352 22 18
44 29 48 25 5 -4 5 -2 2 4 -3 6 17 33 46 60 28 27 42 38 31 24 -12 -14 -19
-31 -17 -37 3 -7 0 -14 -6 -14 -26 -3 -30 -4 -36 -11 -7 -7 4 -6 50 7 35 10
59 33 124 119 92 122 161 265 201 418 23 87 35 232 18 222 -5 -3 -7 -12 -4
-20 3 -8 1 -14 -4 -14 -6 0 -10 -9 -10 -19 0 -11 -4 -22 -9 -26 -5 -3 -4 12 2
32 12 44 16 345 4 418 -14 90 -56 236 -92 319 -132 303 -364 543 -670 691
-218 106 -456 150 -720 134z m268 -72 c41 -26 34 -49 -22 -75 -27 -12 -59 -22
-72 -22 -40 0 0 -20 41 -20 31 -1 33 -2 18 -14 -10 -7 -15 -16 -11 -19 3 -4 0
-7 -7 -7 -7 0 -10 -3 -7 -7 4 -3 2 -11 -3 -18 -5 -6 -11 -20 -13 -31 -1 -10
-7 -25 -12 -33 -10 -17 -13 -161 -4 -161 4 0 10 -16 13 -35 13 -69 59 -190 82
-218 32 -38 33 -72 2 -63 -52 15 -188 18 -253 7 -170 -30 -322 -133 -406 -275
l-22 -37 -33 32 c-18 18 -30 37 -26 43 12 20 17 52 11 76 -7 26 -71 145 -83
152 -6 4 -8 8 -3 8 8 0 -32 47 -89 107 -17 18 -29 35 -25 38 3 3 -2 3 -12 -1
-10 -3 -17 -1 -17 5 0 6 -7 11 -15 11 -8 0 -15 6 -15 13 0 8 -3 7 -10 -3 -8
-12 -10 -12 -15 2 -4 9 -20 20 -36 23 -16 4 -29 11 -29 16 0 14 195 209 209
209 8 0 11 -6 7 -16 -3 -8 3 -35 14 -60 12 -25 18 -50 14 -56 -4 -7 -3 -8 4
-4 7 4 12 1 12 -8 0 -9 3 -16 8 -16 4 0 14 -13 23 -29 11 -18 64 -57 153 -110
74 -45 139 -88 143 -95 10 -16 53 -40 53 -28 0 19 -83 85 -184 146 -163 98
-161 96 -125 188 26 65 19 114 -17 130 -24 11 -51 8 -119 -16 -11 -4 -2 8 19
26 22 18 53 44 69 58 l29 25 -21 27 c-12 14 -21 28 -21 31 0 8 134 66 198 86
70 21 69 21 74 -44 3 -45 -3 -44 128 -32 75 7 75 7 35 -8 -56 -22 -85 -52 -85
-90 0 -37 14 -51 88 -90 34 -19 55 -37 58 -52 4 -13 -8 -79 -25 -147 -36 -144
-48 -231 -33 -239 5 -4 12 17 16 52 4 37 14 67 27 82 23 26 55 92 63 130 20
89 22 113 13 171 -5 34 -9 71 -9 81 1 9 -6 17 -14 17 -8 0 -14 7 -14 16 0 9
-10 25 -22 35 l-21 19 39 0 c21 0 46 5 54 10 12 8 12 10 -5 10 -11 0 -43 10
-72 22 -56 23 -66 43 -35 71 25 22 52 25 192 24 102 -2 131 -5 153 -20z m304
-26 c76 -28 194 -79 202 -87 2 -2 -9 -18 -24 -36 l-27 -32 24 -21 c14 -11 43
-35 66 -54 23 -19 40 -37 37 -39 -2 -3 -11 1 -19 7 -8 7 -34 11 -57 9 -32 -2
-47 -9 -62 -30 l-20 -27 21 -64 c37 -107 37 -106 -118 -203 -52 -32 -119 -83
-150 -112 l-54 -52 -41 15 -40 16 -2 57 c-1 31 -15 113 -33 181 -42 167 -40
178 34 217 58 31 95 67 96 91 0 22 -47 66 -91 85 l-44 18 78 -6 c43 -4 86 -7
95 -8 14 -1 18 10 20 52 2 36 7 52 17 52 7 0 49 -13 92 -29z m-1197 -186 c10
-12 10 -18 0 -30 -7 -8 -10 -21 -7 -28 6 -17 -15 -42 -110 -132 -82 -77 -97
-80 -26 -4 66 71 46 72 -26 2 -33 -33 -68 -66 -77 -74 -16 -13 -16 -12 -1 17
9 17 13 34 10 38 -4 3 -1 6 6 6 7 0 9 5 6 10 -3 6 -1 10 6 10 7 0 10 2 7 5 -7
7 175 195 189 195 6 0 16 -7 23 -15z m1591 -81 c41 -42 86 -88 101 -102 15
-13 25 -28 23 -33 -3 -4 0 -13 7 -21 14 -15 21 -38 12 -38 -3 0 -24 18 -47 39
-54 50 -97 84 -97 76 0 -3 23 -31 51 -61 29 -30 49 -54 45 -54 -17 0 -196 176
-191 188 3 8 -2 23 -10 35 -11 15 -12 24 -3 34 19 23 33 15 109 -63z m-42
-103 c67 -60 177 -181 129 -143 -11 9 -17 9 -20 2 -2 -6 -13 -12 -25 -13 -12
0 -19 -5 -17 -9 5 -8 -9 -11 -37 -9 -9 1 -22 -6 -30 -16 -12 -14 -12 -16 0 -8
10 5 12 4 7 -3 -4 -7 -16 -12 -27 -12 -10 0 -19 -3 -19 -7 0 -5 -14 -24 -31
-43 -96 -109 -146 -220 -127 -284 10 -30 8 -38 -17 -70 -15 -20 -25 -42 -22
-49 3 -8 28 -17 61 -21 30 -3 117 -22 192 -42 111 -28 142 -33 163 -24 26 11
71 69 71 92 0 10 2 10 9 -1 7 -10 13 -11 31 -1 31 17 68 22 75 10 8 -13 25
-13 25 -1 0 5 -12 23 -26 40 -19 23 -34 31 -59 31 -37 0 -48 -11 -90 -89 -37
-70 -45 -71 -201 -32 -65 16 -145 33 -176 36 l-58 7 44 57 c24 31 72 107 106
169 34 61 70 117 81 122 14 8 36 6 83 -9 62 -19 98 -19 124 2 19 15 14 83 -9
130 l-20 42 28 -30 c15 -17 44 -51 64 -75 l36 -44 33 27 c37 31 35 33 75 -45
21 -40 75 -173 75 -184 0 -2 -25 -4 -56 -4 l-56 0 7 -62 c3 -35 9 -71 12 -81
5 -18 5 -18 19 0 16 22 17 22 19 -49 2 -61 -11 -81 -17 -25 l-3 32 -23 -47
c-17 -37 -22 -65 -22 -131 0 -47 -3 -99 -6 -116 -6 -31 -7 -31 -21 -11 -8 11
-25 20 -39 20 -13 0 -24 4 -24 9 0 5 -6 8 -12 8 -7 -1 -38 6 -68 16 -67 20
-224 17 -246 -6 -4 -4 -14 -7 -23 -7 -24 -1 -110 -67 -123 -95 -6 -13 -20 -27
-32 -31 -16 -6 -9 -8 28 -11 33 -3 86 6 170 28 66 18 139 33 161 33 39 1 41
-1 70 -55 38 -73 63 -99 90 -99 34 0 63 29 86 85 l20 50 -6 -65 c-3 -36 -8
-80 -12 -97 l-5 -33 50 0 c28 0 53 -4 56 -9 6 -9 -41 -136 -79 -210 -28 -56
-30 -65 -14 -55 8 4 8 0 0 -15 -13 -24 -23 -28 -15 -6 4 9 0 15 -8 15 -8 0
-29 17 -47 37 l-33 37 -27 -29 c-14 -17 -43 -50 -64 -75 l-38 -45 20 40 c25
47 27 107 5 129 -20 20 -68 20 -127 0 -69 -23 -89 -15 -127 58 -49 92 -137
233 -155 248 -28 24 -27 2 2 -42 17 -24 37 -56 45 -73 22 -45 118 -198 133
-214 15 -16 89 -17 129 -1 41 15 66 13 65 -7 0 -11 -3 -13 -6 -5 -2 6 -9 12
-15 12 -6 0 -6 -6 2 -15 7 -8 19 -15 27 -15 12 0 14 -8 9 -37 -6 -31 -24 -55
-95 -123 -96 -95 -159 -144 -149 -118 4 10 -2 19 -19 27 -14 7 -23 14 -20 18
3 3 0 11 -6 18 -7 7 -19 32 -27 56 -8 24 -20 48 -27 52 -7 4 -13 13 -13 20 0
39 -203 197 -252 197 -10 0 -36 -7 -58 -16 l-41 -17 23 -24 c12 -13 82 -63
156 -110 91 -59 134 -93 138 -109 3 -13 -4 -48 -15 -79 -27 -72 -26 -90 4
-120 28 -29 62 -32 108 -9 l32 15 -25 -23 c-14 -13 -45 -39 -70 -59 l-44 -37
33 -40 32 -41 -48 -24 c-54 -28 -217 -87 -239 -87 -10 0 -14 12 -14 38 0 55
-7 60 -70 51 -30 -4 -71 -8 -90 -8 l-35 0 40 15 c45 17 95 60 95 83 -1 28 -35
63 -96 95 -74 39 -75 45 -36 208 34 140 48 228 35 228 -4 0 -21 -8 -38 -19
-56 -34 -98 -231 -70 -324 15 -47 42 -104 60 -127 7 -8 18 -37 25 -63 11 -41
11 -50 -1 -58 -21 -13 -359 -12 -359 2 0 5 -4 8 -9 5 -13 -8 -6 51 8 68 7 8
10 19 7 25 -3 5 -1 11 4 13 6 2 12 11 14 20 1 9 10 25 19 36 40 44 56 195 28
265 -23 57 -29 72 -31 82 -1 6 -12 24 -24 40 -12 17 -27 39 -31 50 -8 16 -10
10 -13 -28 -2 -31 10 -100 33 -198 21 -82 34 -160 31 -173 -3 -14 -25 -33 -58
-51 -74 -39 -88 -53 -88 -90 0 -39 14 -57 65 -84 l40 -21 -65 7 c-119 13 -115
14 -118 -39 -2 -27 -7 -48 -11 -48 -34 0 -251 89 -251 103 0 6 12 24 27 40
l28 28 -45 37 c-25 20 -58 50 -75 65 l-30 29 36 -21 c37 -21 103 -28 127 -13
23 15 24 74 3 134 -11 31 -17 66 -14 77 3 13 46 45 114 86 119 72 203 135 218
163 9 17 5 19 -47 20 -56 2 -71 -3 -170 -51 -36 -18 -109 -82 -148 -129 -11
-14 -21 -38 -22 -52 0 -5 -6 -12 -14 -17 -7 -5 -14 -16 -14 -26 -3 -32 -24
-74 -34 -68 -6 4 -7 -1 -3 -12 3 -10 3 -15 -2 -11 -4 4 -14 0 -21 -10 -11 -15
-23 -6 -121 88 -84 82 -110 114 -119 145 -9 32 -8 41 3 43 16 4 17 19 1 24 -7
3 -5 7 6 11 9 4 15 3 11 -2 -3 -5 -1 -12 5 -16 5 -3 10 -2 10 4 0 6 7 7 17 4
12 -5 14 -3 8 7 -6 10 -4 12 11 6 52 -22 96 -28 119 -18 23 11 112 138 154
221 11 21 36 59 56 85 20 27 34 51 31 54 -11 10 -82 -77 -134 -165 -28 -48
-63 -107 -76 -130 -21 -36 -31 -43 -56 -43 -17 0 -47 7 -67 15 -47 20 -92 19
-115 -2 -20 -18 -25 -82 -7 -115 24 -45 -2 -25 -47 36 -26 37 -53 66 -59 66
-6 0 -29 -18 -50 -40 -21 -22 -42 -40 -46 -40 -17 0 -129 245 -129 282 0 15 8
18 55 18 52 0 55 1 51 23 -12 58 -17 137 -8 137 5 0 12 -11 16 -23 9 -38 45
-77 71 -77 34 0 62 28 98 95 31 58 33 60 72 59 22 0 94 -15 160 -33 98 -26
134 -32 197 -29 75 3 78 2 87 -22 14 -40 95 -144 142 -182 68 -55 146 -95 234
-119 67 -18 97 -21 185 -16 165 8 283 60 395 171 99 100 165 253 165 386 0
167 -90 340 -231 442 -68 50 -69 51 -52 71 24 26 213 157 227 157 6 0 32 20
56 44 65 64 80 81 80 95 0 7 10 27 22 44 12 17 17 27 10 23 -8 -5 -10 -2 -6 8
3 9 10 13 15 10 5 -3 5 6 -1 20 -15 41 3 32 89 -43z m-1822 -201 c-18 -64 -12
-89 29 -106 31 -13 39 -12 91 6 32 11 65 20 75 20 21 0 50 -39 119 -160 30
-53 79 -121 111 -155 32 -32 58 -62 58 -66 0 -4 -37 -7 -82 -6 -64 0 -114 -8
-223 -36 -162 -42 -172 -40 -207 40 -39 89 -94 109 -142 52 -38 -44 -33 -68 6
-32 10 9 18 11 18 6 0 -6 22 -19 48 -28 32 -12 56 -29 71 -50 12 -18 33 -36
47 -39 15 -4 79 8 160 29 144 39 284 55 284 33 -1 -7 -7 -40 -15 -73 -19 -80
-19 -134 4 -227 22 -93 11 -102 -46 -38 -20 22 -42 40 -50 40 -7 0 -13 4 -13
9 0 8 -79 36 -128 46 -13 2 -31 6 -40 9 -27 9 -133 9 -175 2 -22 -4 -59 -16
-83 -26 -24 -11 -48 -20 -52 -21 -4 -1 -17 -5 -28 -9 -21 -8 -22 -6 -26 111
-2 67 -9 123 -14 127 -6 4 -16 16 -22 27 l-11 20 -2 -20 c-7 -91 -15 -93 -17
-4 -1 39 -4 74 -7 79 -3 4 1 10 9 13 8 3 17 -2 21 -11 11 -28 23 5 26 73 l4
60 -54 3 c-52 3 -53 4 -48 31 10 46 100 243 115 248 7 3 28 -8 46 -26 17 -17
36 -31 41 -31 6 0 32 30 59 66 26 36 50 64 52 62 2 -2 -2 -24 -9 -48z m1108
-165 c41 -9 91 -23 112 -32 21 -9 41 -17 44 -17 18 -2 110 -70 152 -113 101
-101 155 -275 129 -415 -14 -77 -72 -197 -120 -250 -84 -93 -233 -165 -361
-175 -162 -12 -319 45 -433 160 -37 37 -68 73 -68 79 0 6 -6 19 -14 27 -33 37
-59 143 -57 237 2 206 100 364 280 453 116 57 214 71 336 46z m-1328 -457 c-3
-8 -6 -5 -6 6 -1 11 2 17 5 13 3 -3 4 -12 1 -19z m2583 -368 c-6 -23 -13 -40
-15 -38 -2 2 1 23 7 46 6 24 13 41 15 38 2 -2 -1 -23 -7 -46z m-2674 -117 c-5
-5 -36 86 -35 101 0 6 9 -13 20 -43 10 -30 17 -56 15 -58z m2625 -30 c-12 -20
-14 -14 -5 12 4 9 9 14 11 11 3 -2 0 -13 -6 -23z m-2593 -48 c-3 -3 -9 2 -12
12 -6 14 -5 15 5 6 7 -7 10 -15 7 -18z m2565 -20 c-3 -9 -8 -14 -10 -11 -3 3
-2 9 2 15 9 16 15 13 8 -4z m-20 -40 c-3 -9 -8 -14 -10 -11 -3 3 -2 9 2 15 9
16 15 13 8 -4z m-323 -208 c0 -1 -28 -29 -62 -62 l-63 -60 60 63 c55 58 65 67
65 59z m-1738 -122 c15 -21 5 -14 -31 20 -29 28 -57 59 -63 70 -14 26 68 -51
94 -90z m1908 81 c0 -2 -8 -10 -17 -17 -16 -13 -17 -12 -4 4 13 16 21 21 21
13z m-2133 -78 c34 -33 47 -64 15 -35 -10 10 -22 14 -26 10 -4 -5 -7 -3 -6 2
1 6 2 16 1 24 -1 11 -4 11 -18 0 -16 -13 -17 -12 -5 3 10 13 10 17 0 21 -7 3
-9 6 -3 6 5 1 24 -13 42 -31z m1066 -305 c-24 -2 -62 -2 -85 0 -24 2 -5 4 42
4 47 0 66 -2 43 -4z"/>
<path d="M3383 3796 c-61 -20 -106 -51 -157 -107 -144 -161 -80 -408 133 -512
59 -28 76 -31 156 -32 77 0 98 4 146 26 73 35 128 85 164 151 27 47 30 62 30
143 0 79 -3 97 -29 147 -35 70 -94 128 -166 164 -46 23 -70 28 -145 31 -57 2
-106 -2 -132 -11z m213 -44 c52 -27 130 -111 156 -169 16 -36 19 -59 15 -105
-19 -212 -290 -314 -457 -171 -44 38 -95 135 -105 201 -18 112 72 231 198 263
51 13 149 4 193 -19z"/>
<path d="M5051 4634 c0 -11 3 -14 6 -6 3 7 2 16 -1 19 -3 4 -6 -2 -5 -13z"/>
<path d="M2345 4540 c-3 -5 -1 -10 4 -10 6 0 11 5 11 10 0 6 -2 10 -4 10 -3 0
-8 -4 -11 -10z"/>
<path d="M2337 4506 c-3 -8 1 -17 9 -20 8 -3 14 1 14 9 0 20 -17 28 -23 11z"/>
<path d="M1878 4460 c-35 -27 -60 -92 -48 -124 5 -14 43 -50 85 -82 62 -47 78
-54 90 -44 21 17 19 34 -8 67 -22 27 -22 29 -7 60 l17 31 32 -25 c26 -20 34
-23 46 -13 24 20 18 35 -30 69 -25 18 -42 37 -39 43 4 6 3 8 -3 5 -5 -3 -22 3
-39 14 -37 24 -65 24 -96 -1z m103 -20 c70 -47 102 -76 98 -87 -2 -6 -37 13
-78 43 -68 50 -76 53 -95 41 -28 -19 -50 -64 -40 -85 6 -14 8 -13 12 8 5 33
30 60 56 60 17 0 15 -3 -11 -20 -20 -12 -33 -28 -33 -40 0 -11 -1 -23 -2 -26
-2 -4 13 -18 32 -33 l35 -26 -23 29 c-26 34 -28 68 -6 87 11 9 20 10 32 2 24
-14 27 -44 7 -59 -19 -14 -11 -36 24 -68 16 -14 18 -22 10 -32 -8 -10 -25 -2
-80 39 -38 28 -72 60 -75 69 -13 42 41 128 81 128 6 0 31 -13 56 -30z"/>
<path d="M1932 4366 c1 -10 8 -17 13 -17 15 1 12 24 -3 29 -9 3 -13 -2 -10
-12z"/>
<path d="M5035 4462 c-24 -5 -55 -31 -55 -47 0 -6 14 -24 30 -40 47 -45 40
-85 -10 -57 -28 16 -30 16 -54 -7 -14 -14 -26 -34 -26 -46 0 -26 29 -55 56
-55 26 1 115 67 121 91 4 15 9 16 24 9 26 -14 47 24 27 48 -8 9 -19 29 -25 43
-14 34 -62 67 -88 61z m49 -31 c23 -25 57 -93 50 -100 -6 -6 -20 11 -46 58
-17 31 -43 49 -54 38 -4 -3 5 -21 19 -39 29 -39 40 -69 29 -83 -14 -21 -90
-75 -105 -75 -22 0 -39 26 -35 52 4 28 48 37 68 13 12 -14 15 -14 31 1 27 24
24 44 -12 87 -25 31 -29 40 -19 52 17 21 54 19 74 -4z"/>
<path d="M4962 4273 c2 -10 10 -18 18 -18 22 0 18 29 -3 33 -14 3 -18 -1 -15
-15z"/>
<path d="M1719 4001 c-36 -36 -37 -73 -4 -106 52 -53 135 -18 135 57 0 28 -7
42 -26 57 -37 29 -70 26 -105 -8z m77 -60 c-10 -16 -36 -13 -43 5 -8 22 18 37
36 20 7 -8 10 -19 7 -25z"/>
<path d="M5156 4004 c-52 -52 -17 -134 58 -134 68 0 101 86 51 135 -32 33 -75
33 -109 -1z m74 -55 c0 -23 -28 -26 -37 -3 -6 16 15 37 29 28 4 -3 8 -14 8
-25z"/>
<path d="M5288 3714 c-14 -13 -9 -22 27 -43 48 -28 46 -51 -2 -50 -34 0 -36 1
-15 10 43 17 20 34 -41 31 -45 -3 -57 -1 -57 11 0 21 -19 26 -65 18 l-40 -7 3
-79 c4 -89 12 -106 39 -83 24 20 208 35 228 18 27 -22 35 -1 29 78 -4 42 -9
80 -13 84 -9 11 -85 21 -93 12z m-93 -97 c11 -3 3 -5 -17 -6 -26 -1 -38 3 -38
12 0 22 12 28 24 13 6 -8 20 -16 31 -19z"/>
<path d="M1585 3616 c-4 -19 -4 -44 0 -55 7 -22 31 -29 37 -10 2 6 21 9 43 7
l40 -4 -28 -12 c-40 -17 -26 -29 42 -37 46 -5 58 -10 57 -23 -1 -13 9 -18 37
-20 57 -5 67 9 67 94 0 77 -8 92 -38 73 -21 -13 -208 -3 -218 12 -12 20 -33 7
-39 -25z m255 -73 c0 -5 -5 -15 -10 -23 -8 -11 -12 -12 -18 -3 -4 7 -19 16
-32 22 -23 9 -21 10 18 10 23 1 42 -2 42 -6z"/>
<path d="M5120 3504 c-11 -3 -16 -20 -17 -58 -2 -42 2 -60 19 -81 41 -52 140
-71 212 -41 70 29 88 102 36 151 -25 23 -32 26 -45 15 -13 -11 -12 -15 10 -36
14 -13 25 -30 25 -39 0 -33 -91 -45 -176 -24 -37 10 -45 15 -42 33 2 14 15 25
38 32 38 12 54 43 23 45 -10 0 -29 2 -43 4 -14 1 -32 1 -40 -1z"/>
<path d="M1580 3414 c0 -39 12 -55 30 -44 25 16 50 11 50 -9 0 -20 -32 -39
-38 -22 -2 6 -10 11 -18 11 -10 0 -14 -13 -14 -49 0 -52 12 -70 34 -52 8 7 67
31 132 55 72 26 120 48 122 58 2 11 -27 21 -125 42 -70 15 -138 30 -150 33
-20 5 -23 1 -23 -23z"/>
<path d="M2083 3295 c0 -8 4 -12 9 -9 5 3 6 10 3 15 -9 13 -12 11 -12 -6z"/>
<path d="M5090 3276 c0 -39 14 -53 34 -37 9 7 27 8 52 3 l39 -8 -60 -18 c-74
-22 -85 -31 -85 -67 0 -33 13 -44 37 -31 23 13 192 -15 214 -34 24 -22 36 -17
41 16 5 33 -12 56 -28 40 -9 -9 -110 3 -121 14 -2 1 35 16 82 31 123 41 124
52 7 74 -155 29 -172 33 -172 42 0 5 -9 9 -20 9 -16 0 -20 -7 -20 -34z"/>
<path d="M1700 3214 c-47 -20 -78 -51 -85 -85 -10 -46 27 -98 72 -99 35 0 36
18 3 35 -40 21 -37 54 5 74 39 19 170 27 180 12 4 -7 -8 -26 -29 -46 -20 -18
-36 -36 -36 -39 0 -8 40 -8 78 0 30 6 31 7 25 58 -7 75 -43 106 -121 106 -31
-1 -73 -8 -92 -16z"/>
<path d="M5041 3032 c-12 -38 -21 -73 -21 -79 0 -5 -9 -28 -20 -51 -27 -56
-27 -86 1 -77 26 9 188 -59 211 -88 9 -12 19 -20 21 -17 13 15 37 72 37 90 0
21 -14 27 -25 11 -7 -13 -203 68 -210 87 -7 20 15 44 34 37 9 -4 54 -18 101
-31 47 -14 90 -31 96 -39 20 -26 30 -16 49 48 9 34 19 70 22 79 7 22 -74 65
-90 49 -8 -8 -4 -18 16 -37 48 -45 32 -72 -29 -50 l-39 15 33 0 c53 1 38 26
-29 46 -34 11 -57 21 -50 23 30 10 1 34 -56 46 l-32 7 -20 -69z m74 9 c-3 -5
7 -19 21 -30 30 -23 22 -26 -25 -10 -29 10 -39 27 -24 42 10 10 35 8 28 -2z"/>
<path d="M1897 3046 c-3 -8 -43 -26 -89 -42 -128 -42 -171 -102 -113 -159 31
-32 55 -31 160 6 89 31 119 32 109 4 -8 -21 -176 -105 -209 -105 -14 0 -25 -2
-25 -4 0 -19 63 -138 75 -142 22 -9 90 19 90 36 0 10 -8 14 -24 12 -34 -5 -71
6 -71 22 0 19 182 106 209 99 28 -7 27 8 -3 66 -13 25 -27 58 -30 74 -7 28
-30 37 -39 13 -6 -16 -149 -66 -190 -66 -23 0 -28 4 -25 22 2 17 21 28 97 55
52 18 102 31 112 28 26 -9 30 8 12 54 -16 41 -36 53 -46 27z"/>
<path d="M4935 2757 c-21 -46 -24 -59 -15 -83 17 -43 49 -74 105 -100 69 -33
109 -31 146 5 32 33 37 65 13 99 -19 27 -50 31 -39 5 24 -59 13 -82 -36 -75
-45 7 -154 82 -154 107 0 17 8 20 48 23 72 5 64 21 -35 70 -4 2 -18 -21 -33
-51z"/>
<path d="M2023 2677 c-44 -30 -43 -47 2 -40 19 3 35 3 35 0 0 -12 -171 -117
-190 -117 -11 0 -20 -2 -20 -5 0 -13 30 -62 45 -75 14 -11 17 -10 21 7 6 23
177 138 183 122 1 -5 -5 -19 -15 -30 -9 -10 -14 -22 -10 -26 11 -11 76 29 75
46 0 20 -70 134 -84 137 -5 2 -25 -7 -42 -19z"/>
<path d="M4843 2590 c-32 -39 -29 -66 11 -106 37 -37 63 -42 128 -22 33 10 41
9 55 -5 9 -9 13 -23 9 -32 -6 -17 -17 -17 -73 0 -16 5 -23 3 -23 -6 0 -8 10
-20 23 -28 12 -8 32 -21 45 -29 21 -14 23 -13 29 6 3 12 9 22 13 22 4 0 12 12
19 26 16 36 -10 87 -56 109 -32 15 -43 16 -90 5 -46 -12 -56 -11 -69 2 -23 23
4 42 41 28 45 -17 52 4 12 34 -42 32 -46 32 -74 -4z"/>
<path d="M2150 2531 c0 -5 -18 -41 -41 -80 -43 -74 -79 -111 -110 -111 -26 0
-24 -15 7 -56 30 -38 44 -43 44 -15 0 41 130 111 207 111 28 0 29 17 4 49 -18
24 -41 22 -41 -4 0 -11 -58 -40 -66 -32 -7 7 40 67 52 67 20 0 17 16 -8 50
-21 29 -48 40 -48 21z"/>
<path d="M4632 2337 c-29 -29 -52 -57 -52 -62 1 -14 47 -65 60 -65 13 0 13 3
-2 35 -6 14 -8 28 -5 32 9 9 146 -138 147 -158 0 -30 14 -29 47 3 35 34 41 48
20 48 -16 0 -173 157 -165 165 3 4 20 -1 37 -9 16 -9 32 -12 35 -8 6 11 -42
72 -58 72 -6 0 -35 -24 -64 -53z"/>
<path d="M4530 2240 l-25 -20 22 -6 c19 -5 83 -84 68 -84 -3 0 -32 14 -65 30
-57 29 -61 30 -85 14 -30 -19 -32 -40 -6 -47 25 -6 144 -164 137 -182 -8 -21
10 -28 33 -13 31 19 33 38 7 48 -26 9 -94 100 -76 100 6 0 42 -16 80 -35 68
-34 100 -43 100 -27 0 7 -40 61 -114 156 -16 21 -30 47 -31 59 -2 28 -15 30
-45 7z"/>
<path d="M2367 2226 c-88 -44 -138 -175 -87 -226 34 -34 92 -27 141 17 74 67
98 146 59 195 -27 35 -63 40 -113 14z m86 -48 c-3 -45 -101 -168 -134 -168
-42 0 0 98 69 162 47 43 68 45 65 6z"/>
<path d="M2549 2143 c-1 -5 -2 -15 -3 -23 -2 -26 -97 -180 -117 -191 -26 -14
-24 -21 17 -47 35 -23 57 -22 49 1 -3 7 7 30 21 52 l25 40 -5 -32 c-8 -51 15
-41 52 21 32 54 39 76 24 76 -4 0 -16 -9 -25 -21 -10 -11 -21 -18 -24 -15 -6
6 35 76 46 76 18 0 29 -25 24 -56 -7 -46 8 -43 36 6 l22 40 -62 40 c-62 40
-78 47 -80 33z"/>
<path d="M4330 2099 c-25 -17 -51 -34 -59 -39 -12 -6 -9 -14 15 -38 37 -36
114 -168 114 -193 0 -11 5 -19 10 -19 13 0 130 73 130 81 0 14 -30 78 -40 84
-6 4 -10 -11 -10 -38 0 -28 -6 -49 -15 -57 -9 -7 -17 -11 -19 -9 -12 16 -46
78 -46 84 0 5 11 -2 25 -15 14 -13 28 -20 32 -16 8 8 -45 111 -66 129 -12 10
-13 6 -8 -25 7 -48 -6 -49 -27 -3 -26 54 -1 74 44 35 32 -27 37 -18 15 30 -21
48 -34 49 -95 9z"/>
<path d="M4201 2023 c-20 -17 -21 -22 -12 -88 6 -38 9 -71 7 -72 -2 -2 -24 23
-49 56 -49 62 -61 66 -102 35 -20 -15 -20 -15 2 -32 26 -21 97 -187 90 -213
-5 -20 15 -25 47 -13 20 8 21 34 2 34 -7 0 -23 23 -34 50 -12 28 -18 50 -14
50 4 -1 25 -25 47 -55 40 -54 62 -65 58 -29 -1 10 -5 46 -8 79 l-5 60 19 -40
c11 -22 20 -55 20 -73 1 -19 4 -32 9 -30 4 2 24 10 45 18 42 16 45 25 18 48
-25 22 -93 195 -85 216 9 22 -27 21 -55 -1z"/>
<path d="M2824 1976 c7 -29 -57 -214 -80 -231 -13 -9 -14 -13 -2 -22 7 -6 22
-13 32 -15 17 -2 20 3 21 37 1 22 9 54 18 70 16 29 16 29 10 -47 -4 -54 -3
-78 5 -78 6 0 30 27 53 60 24 33 44 58 46 57 6 -7 -29 -96 -43 -108 -21 -17
-17 -26 17 -38 48 -17 59 -14 59 15 0 39 59 208 76 217 8 4 14 12 14 17 0 8
-69 35 -74 28 -1 -1 -22 -30 -46 -63 l-42 -60 6 78 7 78 -35 14 c-47 20 -49
19 -42 -9z"/>
<path d="M3925 1924 c-63 -20 -73 -29 -53 -51 23 -27 70 -214 57 -229 -19 -24
10 -25 81 -3 38 11 72 24 74 28 10 16 -7 91 -20 91 -8 0 -14 -9 -14 -21 0 -28
-18 -59 -35 -59 -13 0 -16 5 -30 60 l-6 25 20 -25 c11 -14 23 -22 26 -18 8 7
-12 102 -27 131 -13 25 -31 10 -24 -19 10 -39 -10 -27 -22 13 -19 61 11 75 49
22 28 -40 43 -25 26 27 -16 46 -31 50 -102 28z"/>
<path d="M3134 1888 c-4 -6 -29 -57 -56 -112 -27 -56 -57 -109 -65 -119 -19
-21 -16 -25 24 -33 30 -6 31 -5 30 27 -2 28 2 35 19 37 27 4 42 -38 19 -51 -8
-4 -15 -12 -15 -16 0 -11 83 -32 91 -23 3 4 0 66 -7 137 -7 72 -13 138 -13
148 -1 19 -16 23 -27 5z m-24 -149 c0 -11 -4 -18 -10 -14 -5 3 -7 12 -3 20 7
21 13 19 13 -6z"/>
<path d="M3805 1890 c-4 -6 -20 -9 -37 -6 -22 3 -37 -2 -60 -23 -87 -77 -12
-298 92 -274 56 12 64 25 65 97 l0 68 -40 -7 c-51 -8 -62 -19 -41 -40 9 -9 16
-32 16 -51 0 -54 -31 -41 -52 21 -19 55 -24 160 -8 170 18 11 50 -6 65 -36 20
-37 35 -37 35 0 0 67 -18 109 -35 81z"/>
<path d="M3255 1870 c-3 -5 -1 -18 4 -28 12 -23 -4 -209 -20 -228 -16 -19 -2
-34 32 -34 29 0 38 17 19 36 -5 5 -6 35 -3 67 3 33 10 54 15 49 4 -4 21 -42
37 -83 29 -75 61 -105 61 -57 1 72 21 233 30 242 16 16 12 23 -14 28 -36 7
-51 -5 -36 -29 9 -14 10 -31 4 -59 l-10 -39 -23 63 c-13 34 -26 64 -30 66 -19
11 -61 15 -66 6z"/>
<path d="M3526 1838 c-3 -13 -17 -71 -31 -130 -14 -58 -28 -113 -31 -122 -5
-12 0 -16 23 -16 37 0 45 7 31 30 -15 23 -4 50 21 50 20 0 38 -42 21 -48 -6
-2 -10 -10 -10 -18 0 -10 13 -14 44 -14 43 0 69 15 49 29 -6 3 -27 63 -48 134
-38 123 -56 151 -69 105z m14 -139 c0 -11 -4 -18 -10 -14 -5 3 -7 12 -3 20 7
21 13 19 13 -6z"/>
<path d="M2294 4839 c-10 -17 13 -36 27 -22 12 12 4 33 -11 33 -5 0 -12 -5
-16 -11z"/>
<path d="M2372 4726 c1 -10 8 -17 13 -17 15 1 12 24 -3 29 -9 3 -13 -2 -10
-12z"/>
<path d="M2264 4635 c-9 -23 10 -40 25 -22 9 11 8 17 -4 27 -12 10 -16 9 -21
-5z"/>
<path d="M2130 4496 c0 -21 21 -31 30 -15 5 7 6 17 4 21 -9 14 -34 9 -34 -6z"/>
</g>
</svg>
