<svg xmlns="http://www.w3.org/2000/svg" viewBox="0 0 64 64" role="img" aria-label="ตราคณะวิทยาการจัดการ">
  <title>คณะวิทยาการจัดการ</title>
  <g fill="none" stroke="#2054a8" stroke-width="3" stroke-linecap="round" stroke-linejoin="round">
    <circle cx="32" cy="32" r="12"/>
    <g>
      <line x1="32" y1="26" x2="32" y2="6"/>
      <line x1="27" y1="6" x2="37" y2="6"/>
    </g>
    <g transform="rotate(45 32 32)">
      <line x1="32" y1="26" x2="32" y2="6"/>
      <line x1="27" y1="6" x2="37" y2="6"/>
    </g>
    <g transform="rotate(90 32 32)">
      <line x1="32" y1="26" x2="32" y2="6"/>
      <line x1="27" y1="6" x2="37" y2="6"/>
    </g>
    <g transform="rotate(135 32 32)">
      <line x1="32" y1="26" x2="32" y2="6"/>
      <line x1="27" y1="6" x2="37" y2="6"/>
    </g>
    <g transform="rotate(180 32 32)">
      <line x1="32" y1="26" x2="32" y2="6"/>
      <line x1="27" y1="6" x2="37" y2="6"/>
    </g>
    <g transform="rotate(225 32 32)">
      <line x1="32" y1="26" x2="32" y2="6"/>
      <line x1="27" y1="6" x2="37" y2="6"/>
    </g>
    <g transform="rotate(270 32 32)">
      <line x1="32" y1="26" x2="32" y2="6"/>
      <line x1="27" y1="6" x2="37" y2="6"/>
    </g>
    <g transform="rotate(315 32 32)">
      <line x1="32" y1="26" x2="32" y2="6"/>
      <line x1="27" y1="6" x2="37" y2="6"/>
    </g>
  </g>
  <circle cx="32" cy="32" r="5.5" fill="#ffffff" stroke="#0891b2" stroke-width="3"/>
  <circle cx="32" cy="32" r="2.4" fill="#db2777"/>
</svg>
